<?xml version="1.0" encoding="utf-8"?>
<!DOCTYPE svg PUBLIC "-//W3C//DTD SVG 1.1//EN" "http://www.w3.org/Graphics/SVG/1.1/DTD/svg11.dtd">
<svg style="width:308px;height:308px;" version="1.1" id="图形" xmlns="http://www.w3.org/2000/svg" xmlns:xlink="http://www.w3.org/1999/xlink" x="0px" y="0px" width="1024px" height="1024px" viewBox="0 0 1024 1024" enable-background="new 0 0 1024 1024" xml:space="preserve">
  <path class="svgpath" data-index="path_0" fill="#56abe4" d="M683.672918 621.6227c0 28.30158-22.907733 51.204196-51.199079 51.204196-28.302603 0-51.210335-22.903639-51.210335-51.204196 0-28.302603 22.907733-51.205219 51.210335-51.205219C660.765185 570.416458 683.672918 593.320097 683.672918 621.6227zM387.464659 570.449203c-28.227901 0-51.167357 22.939455-51.167357 51.173496 0 28.233018 22.940478 51.16224 51.167357 51.16224 28.238135 0 51.158147-22.929222 51.158147-51.16224C438.621782 593.388658 415.702794 570.449203 387.464659 570.449203zM957.747063 604.419899c0 68.433602-76.361155 163.757644-192.657858 200.059432-3.353374 1.713015-18.878976 4.860704-34.034141 6.531763-58.582233 96.348372-173.429935 138.533147-221.096561 138.533147-47.086411 0-159.807682-41.289382-219.002876-135.323035-9.857509-1.439792-21.766746-4.479011-36.075637-9.741875C138.574079 768.177544 62.254879 672.826895 62.254879 604.388177c0-118.925576 138.358161-159.844521 138.358161-159.844521 0-154.487513 102.304014-283.645129 239.35132-317.133847L439.96436 114.115014c0-19.348674 15.663748-35.002189 35.007305-35.002189l69.994144 0c19.343557 0 35.007305 15.652492 35.007305 35.002189l0 13.294794c137.057539 33.463136 239.362576 162.619728 239.362576 317.133847C819.33569 444.543655 957.693852 491.106134 957.747063 604.419899zM439.965383 289.109584c0 26.187429 39.217187 52.373835 58.931181 63.923892 3.691065 0.137123 7.328919 0.475837 11.062963 0.475837 3.722788 0 7.297197-0.264013 10.946306-0.407276 19.693528-11.485589 59.068304-37.736463 59.068304-63.99143 0-34.990932 0-69.994144 0-69.994144L439.965383 219.116463C439.965383 219.11544 439.965383 254.118652 439.965383 289.109584zM699.632401 722.556507c3.110851-14.563694 15.97074-24.991184 30.830169-24.991184 18.286482 0 62.98245-36.329417 62.98245-68.02121 0-34.854832-18.932188-57.963133-31.422663-57.963133-16.752546 0-30.523177-13.025665-31.464619-29.767977-0.824785-14.119579-2.432399-27.403117-4.64274-40.252773-55.747675-27.154453-131.865283-43.991933-215.871559-43.991933-84.092233 0-160.314219 16.83748-216.051661 44.024679-2.158153 12.791327-3.723811 26.165939-4.53734 40.22105-0.983397 16.636912-14.784728 29.693276-31.453363 29.693276-15.21861 0-31.516808 23.316032-31.516808 57.969273 0 32.209586 49.157583 66.714448 63.330374 67.957765 13.854543 1.194198 27.656897 11.379165 30.523177 24.949228 24.261567 114.746394 152.308895 164.068729 189.67492 164.068729C547.367509 886.451274 675.402557 837.19136 699.632401 722.556507z" />

</svg>
